solid Visualization Toolkit generated SLA File
 facet normal 0 0 1
  outer loop
   vertex -0.00016060932830441743 0.0035542966797947884 0.037999998778104782
   vertex 0.0035542966797947884 0.00016060932830441743 0.037999998778104782
   vertex 0.0022744222078472376 0.0028610785957425833 0.037999998778104782
  endloop
 endfacet
 facet normal 0 0 1
  outer loop
   vertex 0.0028610785957425833 -0.0022744222078472376 0.037999998778104782
   vertex 0.0035542966797947884 0.00016060932830441743 0.037999998778104782
   vertex -0.00016060932830441743 0.0035542966797947884 0.037999998778104782
  endloop
 endfacet
 facet normal 0 0 1
  outer loop
   vertex -0.00016060932830441743 0.0035542966797947884 0.037999998778104782
   vertex -0.00022179922962095588 -0.0036966244224458933 0.037999998778104782
   vertex 0.0028610785957425833 -0.0022744222078472376 0.037999998778104782
  endloop
 endfacet
 facet normal -0 0 1
  outer loop
   vertex -0.00016060932830441743 0.0035542966797947884 0.037999998778104782
   vertex -0.0026941818650811911 -0.0023638480342924595 0.037999998778104782
   vertex -0.00022179922962095588 -0.0036966244224458933 0.037999998778104782
  endloop
 endfacet
 facet normal -0 0 1
  outer loop
   vertex -0.00016060932830441743 0.0035542966797947884 0.037999998778104782
   vertex -0.0035542966797947884 -0.00016060932830441743 0.037999998778104782
   vertex -0.0026941818650811911 -0.0023638480342924595 0.037999998778104782
  endloop
 endfacet
 facet normal 0 0 1
  outer loop
   vertex -0.0028610785957425833 0.0022744222078472376 0.037999998778104782
   vertex -0.0035542966797947884 -0.00016060932830441743 0.037999998778104782
   vertex -0.00016060932830441743 0.0035542966797947884 0.037999998778104782
  endloop
 endfacet
 facet normal 0 -0 -1
  outer loop
   vertex -0.0016562276287004352 -0.0033122703898698092 -0.0080000003799796104
   vertex -0.0011513051576912403 0.0033942440059036016 -0.0080000003799796104
   vertex 0.0016562276287004352 0.0033122703898698092 -0.0080000003799796104
  endloop
 endfacet
 facet normal 0 0 -1
  outer loop
   vertex -0.0016562276287004352 -0.0033122703898698092 -0.0080000003799796104
   vertex -0.0033122703898698092 0.0016562276287004352 -0.0080000003799796104
   vertex -0.0011513051576912403 0.0033942440059036016 -0.0080000003799796104
  endloop
 endfacet
 facet normal 0 0 -1
  outer loop
   vertex -0.0016562276287004352 -0.0033122703898698092 -0.0080000003799796104
   vertex -0.0033942440059036016 -0.0011513051576912403 -0.0080000003799796104
   vertex -0.0033122703898698092 0.0016562276287004352 -0.0080000003799796104
  endloop
 endfacet
 facet normal 0 0 -1
  outer loop
   vertex -0.0016562276287004352 -0.0033122703898698092 -0.0080000003799796104
   vertex 0.0033122703898698092 -0.0016562276287004352 -0.0080000003799796104
   vertex 0.0011513051576912403 -0.0033942440059036016 -0.0080000003799796104
  endloop
 endfacet
 facet normal 0 0 -1
  outer loop
   vertex -0.0016562276287004352 -0.0033122703898698092 -0.0080000003799796104
   vertex 0.0033942440059036016 0.0011513051576912403 -0.0080000003799796104
   vertex 0.0033122703898698092 -0.0016562276287004352 -0.0080000003799796104
  endloop
 endfacet
 facet normal 0 -0 -1
  outer loop
   vertex -0.0016562276287004352 -0.0033122703898698092 -0.0080000003799796104
   vertex 0.0016562276287004352 0.0033122703898698092 -0.0080000003799796104
   vertex 0.0033942440059036016 0.0011513051576912403 -0.0080000003799796104
  endloop
 endfacet
 facet normal -0.42827104931227988 0.90362987320267585 0.0060795210892433792
  outer loop
   vertex -0.00016060932830441743 0.0035542966797947884 0.037999998778104782
   vertex -0.0011513051576912403 0.0033942440059036016 -0.0080000003799796104
   vertex -0.0028610785957425833 0.0022744222078472376 0.037999998778104782
  endloop
 endfacet
 facet normal -0.62671965419563747 0.77923280862239774 -0.0043249290572522836
  outer loop
   vertex -0.0028610785957425833 0.0022744222078472376 0.037999998778104782
   vertex -0.0011513051576912403 0.0033942440059036016 -0.0080000003799796104
   vertex -0.0033122703898698092 0.0016562276287004352 -0.0080000003799796104
  endloop
 endfacet
 facet normal -0.96176896979683968 0.2738016459520321 0.0057539038820394132
  outer loop
   vertex -0.0028610785957425833 0.0022744222078472376 0.037999998778104782
   vertex -0.0033122703898698092 0.0016562276287004352 -0.0080000003799796104
   vertex -0.0035542966797947884 -0.00016060932830441743 0.037999998778104782
  endloop
 endfacet
 facet normal -0.99956559038987136 0.02918505753677042 -0.0041064492111064829
  outer loop
   vertex -0.0035542966797947884 -0.00016060932830441743 0.037999998778104782
   vertex -0.0033122703898698092 0.0016562276287004352 -0.0080000003799796104
   vertex -0.0033942440059036016 -0.0011513051576912403 -0.0080000003799796104
  endloop
 endfacet
 facet normal -0.93152278524400023 -0.36365399067021742 0.0045908213737625055
  outer loop
   vertex -0.0035542966797947884 -0.00016060932830441743 0.037999998778104782
   vertex -0.0033942440059036016 -0.0011513051576912403 -0.0080000003799796104
   vertex -0.0026941818650811911 -0.0023638480342924595 0.037999998778104782
  endloop
 endfacet
 facet normal -0.77923163146064833 -0.62671870743056757 -0.0046611466116319392
  outer loop
   vertex -0.0026941818650811911 -0.0023638480342924595 0.037999998778104782
   vertex -0.0033942440059036016 -0.0011513051576912403 -0.0080000003799796104
   vertex -0.0016562276287004352 -0.0033122703898698092 -0.0080000003799796104
  endloop
 endfacet
 facet normal -0.47449882933363519 -0.88022467731145992 0.0074416673498640708
  outer loop
   vertex -0.0026941818650811911 -0.0023638480342924595 0.037999998778104782
   vertex -0.0016562276287004352 -0.0033122703898698092 -0.0080000003799796104
   vertex -0.00022179922962095588 -0.0036966244224458933 0.037999998778104782
  endloop
 endfacet
 facet normal -0.029184495483961445 -0.99954634051698266 -0.0074416653011874587
  outer loop
   vertex -0.00022179922962095588 -0.0036966244224458933 0.037999998778104782
   vertex -0.0016562276287004352 -0.0033122703898698092 -0.0080000003799796104
   vertex 0.0011513051576912403 -0.0033942440059036016 -0.0080000003799796104
  endloop
 endfacet
 facet normal 0.41888788054401793 -0.90801444758480432 0.006535021851776587
  outer loop
   vertex -0.00022179922962095588 -0.0036966244224458933 0.037999998778104782
   vertex 0.0011513051576912403 -0.0033942440059036016 -0.0080000003799796104
   vertex 0.0028610785957425833 -0.0022744222078472376 0.037999998778104782
  endloop
 endfacet
 facet normal 0.62671965419563747 -0.77923280862239774 -0.0043249290572522836
  outer loop
   vertex 0.0028610785957425833 -0.0022744222078472376 0.037999998778104782
   vertex 0.0011513051576912403 -0.0033942440059036016 -0.0080000003799796104
   vertex 0.0033122703898698092 -0.0016562276287004352 -0.0080000003799796104
  endloop
 endfacet
 facet normal 0.96176896979683968 -0.2738016459520321 0.0057539038820394132
  outer loop
   vertex 0.0028610785957425833 -0.0022744222078472376 0.037999998778104782
   vertex 0.0033122703898698092 -0.0016562276287004352 -0.0080000003799796104
   vertex 0.0035542966797947884 0.00016060932830441743 0.037999998778104782
  endloop
 endfacet
 facet normal 0.99956559038987136 -0.02918505753677042 -0.0041064492111064829
  outer loop
   vertex 0.0035542966797947884 0.00016060932830441743 0.037999998778104782
   vertex 0.0033122703898698092 -0.0016562276287004352 -0.0080000003799796104
   vertex 0.0033942440059036016 0.0011513051576912403 -0.0080000003799796104
  endloop
 endfacet
 facet normal 0.90362987320267585 0.42827104931227988 0.0060795210892433792
  outer loop
   vertex 0.0035542966797947884 0.00016060932830441743 0.037999998778104782
   vertex 0.0033942440059036016 0.0011513051576912403 -0.0080000003799796104
   vertex 0.0022744222078472376 0.0028610785957425833 0.037999998778104782
  endloop
 endfacet
 facet normal 0.77923280862239774 0.62671965419563747 -0.0043249290572522836
  outer loop
   vertex 0.0022744222078472376 0.0028610785957425833 0.037999998778104782
   vertex 0.0033942440059036016 0.0011513051576912403 -0.0080000003799796104
   vertex 0.0016562276287004352 0.0033122703898698092 -0.0080000003799796104
  endloop
 endfacet
 facet normal 0.2738016459520321 0.96176896979683968 0.0057539038820394132
  outer loop
   vertex 0.0022744222078472376 0.0028610785957425833 0.037999998778104782
   vertex 0.0016562276287004352 0.0033122703898698092 -0.0080000003799796104
   vertex -0.00016060932830441743 0.0035542966797947884 0.037999998778104782
  endloop
 endfacet
 facet normal 0.02918505753677042 0.99956559038987136 -0.0041064492111064829
  outer loop
   vertex -0.00016060932830441743 0.0035542966797947884 0.037999998778104782
   vertex 0.0016562276287004352 0.0033122703898698092 -0.0080000003799796104
   vertex -0.0011513051576912403 0.0033942440059036016 -0.0080000003799796104
  endloop
 endfacet
 facet normal -0.033030273328642827 0.99916240290550729 0.024155613507588072
  outer loop
   vertex 0.017920630052685738 0.014748549088835716 -0.0058499234728515148
   vertex 0.012632153928279877 0.014499999582767487 -0.0028004662599414587
   vertex 0.019036483019590378 0.014722847379744053 -0.0032609968911856413
  endloop
 endfacet
 facet normal -0.034187831379119411 0.99938207620423769 0.0081644318418315886
  outer loop
   vertex 0.019036483019590378 0.014722847379744053 -0.0032609968911856413
   vertex 0.012632153928279877 0.014499999582767487 -0.0028004662599414587
   vertex 0.013298884034156799 0.014499999582767487 -8.5933070295141079e-06
  endloop
 endfacet
 facet normal 0.49308074682480801 0.0019341908696443174 0.86998139981057598
  outer loop
   vertex 0.019036483019590378 0.014722847379744053 -0.0032609968911856413
   vertex 0.013298884034156799 0.014499999582767487 -8.5933070295141079e-06
   vertex 0.013404252007603645 -0.008500000461935997 -1.7178006601170637e-05
  endloop
 endfacet
 facet normal 0.4999747876482411 -0.00028837479635966212 0.86603991164153238
  outer loop
   vertex 0.039167303591966629 -0.008500000461935997 -0.01489048358052969
   vertex 0.019036483019590378 0.014722847379744053 -0.0032609968911856413
   vertex 0.013404252007603645 -0.008500000461935997 -1.7178006601170637e-05
  endloop
 endfacet
 facet normal 0.50041457126452982 0.00022006150544989406 0.86578589064448885
  outer loop
   vertex 0.039175879210233688 0.026444016024470329 -0.014904322102665901
   vertex 0.019036483019590378 0.014722847379744053 -0.0032609968911856413
   vertex 0.039167303591966629 -0.008500000461935997 -0.01489048358052969
  endloop
 endfacet
 facet normal 0 -1 0
  outer loop
   vertex 0.039167303591966629 -0.008500000461935997 -0.01489048358052969
   vertex 0.013404252007603645 -0.008500000461935997 -1.7178006601170637e-05
   vertex 0.037125200033187866 -0.008500000461935997 -0.016937999054789543
  endloop
 endfacet
 facet normal 0 -1 -0
  outer loop
   vertex 0.037125200033187866 -0.008500000461935997 -0.016937999054789543
   vertex 0.013404252007603645 -0.008500000461935997 -1.7178006601170637e-05
   vertex 0.012638809159398079 -0.008500000461935997 -0.0028008599765598774
  endloop
 endfacet
 facet normal -0.055678071845635967 0.98183820208161332 0.18136619654361555
  outer loop
   vertex 0.051777150481939316 0.032547879964113235 -0.036773048341274261
   vertex 0.049012441188097 0.032531104981899261 -0.037530981004238129
   vertex 0.043235596269369125 0.030354375019669533 -0.027520554140210152
  endloop
 endfacet
 facet normal -0.097997649237766035 0.9848570677634837 0.1430140441361778
  outer loop
   vertex 0.051777150481939316 0.032547879964113235 -0.036773048341274261
   vertex 0.043235596269369125 0.030354375019669533 -0.027520554140210152
   vertex 0.04653080552816391 0.030697869136929512 -0.027628025040030479
  endloop
 endfacet
 facet normal -0.091240529642578685 0.95911275922378436 0.26791394298296795
  outer loop
   vertex 0.04653080552816391 0.030697869136929512 -0.027628025040030479
   vertex 0.043235596269369125 0.030354375019669533 -0.027520554140210152
   vertex 0.039175879210233688 0.026444016024470329 -0.014904322102665901
  endloop
 endfacet
 facet normal -0.24670669644658133 0.94525857019661363 0.2135931679578448
  outer loop
   vertex 0.039175879210233688 0.026444016024470329 -0.014904322102665901
   vertex 0.043235596269369125 0.030354375019669533 -0.027520554140210152
   vertex 0.03711913526058197 0.026365362107753754 -0.016931841149926186
  endloop
 endfacet
 facet normal 0.86735057141857708 0.00055879112203714482 0.49769737191625768
  outer loop
   vertex 0.051807481795549393 -0.0084999948740005493 -0.036779820919036865
   vertex 0.051777150481939316 0.032547879964113235 -0.036773048341274261
   vertex 0.04653080552816391 0.030697869136929512 -0.027628025040030479
  endloop
 endfacet
 facet normal 0.86598491387807597 -1.448386932470404e-05 0.5000701238084504
  outer loop
   vertex 0.039175879210233688 0.026444016024470329 -0.014904322102665901
   vertex 0.039167303591966629 -0.008500000461935997 -0.01489048358052969
   vertex 0.051807481795549393 -0.0084999948740005493 -0.036779820919036865
  endloop
 endfacet
 facet normal 0.8658033309392863 -0.00027684432315666234 0.5003843677530877
  outer loop
   vertex 0.039175879210233688 0.026444016024470329 -0.014904322102665901
   vertex 0.051807481795549393 -0.0084999948740005493 -0.036779820919036865
   vertex 0.04653080552816391 0.030697869136929512 -0.027628025040030479
  endloop
 endfacet
 facet normal 1.7911816030086729e-06 -0.99999999999809241 7.7905141419367601e-07
  outer loop
   vertex 0.051807481795549393 -0.0084999948740005493 -0.036779820919036865
   vertex 0.039167303591966629 -0.008500000461935997 -0.01489048358052969
   vertex 0.049013521522283554 -0.008500000461935997 -0.037528738379478455
  endloop
 endfacet
 facet normal 0 -1 -0
  outer loop
   vertex 0.049013521522283554 -0.008500000461935997 -0.037528738379478455
   vertex 0.039167303591966629 -0.008500000461935997 -0.01489048358052969
   vertex 0.037125200033187866 -0.008500000461935997 -0.016937999054789543
  endloop
 endfacet
 facet normal 0.052498891730153777 0.99574345130400632 -0.075755168485665117
  outer loop
   vertex 0.051813770085573196 0.033685658127069473 -0.051490537822246552
   vertex 0.051776435226202011 0.032537404447793961 -0.066609323024749756
   vertex 0.048982720822095871 0.0327414870262146 -0.065862879157066345
  endloop
 endfacet
 facet normal 0.0038625258255367244 0.99779163514338687 -0.066309378915304848
  outer loop
   vertex 0.048982720822095871 0.0327414870262146 -0.065862879157066345
   vertex 0.049013771116733551 0.033671457320451736 -0.051867324858903885
   vertex 0.051813770085573196 0.033685658127069473 -0.051490537822246552
  endloop
 endfacet
 facet normal -0.015723727540470977 0.9967282869930415 0.079281058899021997
  outer loop
   vertex 0.051813770085573196 0.033685658127069473 -0.051490537822246552
   vertex 0.049013771116733551 0.033671457320451736 -0.051867324858903885
   vertex 0.049012441188097 0.032531104981899261 -0.037530981004238129
  endloop
 endfacet
 facet normal -0.027151653063317443 0.99666268481771858 0.076982338415159057
  outer loop
   vertex 0.051813770085573196 0.033685658127069473 -0.051490537822246552
   vertex 0.049012441188097 0.032531104981899261 -0.037530981004238129
   vertex 0.051777150481939316 0.032547879964113235 -0.036773048341274261
  endloop
 endfacet
 facet normal 0.99999650262261852 0.0007759732586964422 -0.0025283607402584959
  outer loop
   vertex 0.051808439195156097 -0.0084999948740005493 -0.066546067595481873
   vertex 0.051776435226202011 0.032537404447793961 -0.066609323024749756
   vertex 0.051813770085573196 0.033685658127069473 -0.051490537822246552
  endloop
 endfacet
 facet normal 0.99999998998194184 -0.00013784628227328218 3.2163934120422652e-05
  outer loop
   vertex 0.051808439195156097 -0.0084999948740005493 -0.066546067595481873
   vertex 0.051813770085573196 0.033685658127069473 -0.051490537822246552
   vertex 0.051807481795549393 -0.0084999948740005493 -0.036779820919036865
  endloop
 endfacet
 facet normal 0.99999648814544095 0.00073850276755558673 0.0025452525311328716
  outer loop
   vertex 0.051807481795549393 -0.0084999948740005493 -0.036779820919036865
   vertex 0.051813770085573196 0.033685658127069473 -0.051490537822246552
   vertex 0.051777150481939316 0.032547879964113235 -0.036773048341274261
  endloop
 endfacet
 facet normal 1.9993106426052261e-06 -0.99999999999800138 6.4305696439232575e-11
  outer loop
   vertex 0.051808439195156097 -0.0084999948740005493 -0.066546067595481873
   vertex 0.051807481795549393 -0.0084999948740005493 -0.036779820919036865
   vertex 0.049013484269380569 -0.008500000461935997 -0.06580459326505661
  endloop
 endfacet
 facet normal 2.0000060396438927e-06 -0.99999999999799993 -2.6349700571390118e-12
  outer loop
   vertex 0.049013484269380569 -0.008500000461935997 -0.06580459326505661
   vertex 0.051807481795549393 -0.0084999948740005493 -0.036779820919036865
   vertex 0.049013521522283554 -0.008500000461935997 -0.037528738379478455
  endloop
 endfacet
 facet normal -0.014468204165201125 -0.99982944621456871 0.01147822070282228
  outer loop
   vertex 0.038085982203483582 -0.0085744904354214668 -0.090332172811031342
   vertex 0.051808439195156097 -0.0084999948740005493 -0.066546067595481873
   vertex 0.035629674792289734 -0.0085234986618161201 -0.088986605405807495
  endloop
 endfacet
 facet normal 0.00023492616435667415 -0.99999958695607893 0.00087800761322273148
  outer loop
   vertex 0.035629674792289734 -0.0085234986618161201 -0.088986605405807495
   vertex 0.051808439195156097 -0.0084999948740005493 -0.066546067595481873
   vertex 0.049013484269380569 -0.008500000461935997 -0.06580459326505661
  endloop
 endfacet
 facet normal -0.083375736421469712 0.93558993056881723 -0.34310343687350792
  outer loop
   vertex 0.037508729845285416 0.024748740717768669 -0.091332003474235535
   vertex 0.035339336842298508 0.025231108069419861 -0.089489489793777466
   vertex 0.044487468898296356 0.029803451150655746 -0.079244457185268402
  endloop
 endfacet
 facet normal -0.37592505065252163 0.92348893897413176 -0.076475720881410927
  outer loop
   vertex 0.044487468898296356 0.029803451150655746 -0.079244457185268402
   vertex 0.035339336842298508 0.025231108069419861 -0.089489489793777466
   vertex 0.048982720822095871 0.0327414870262146 -0.065862879157066345
  endloop
 endfacet
 facet normal 0.012882223681564142 0.97573870320753342 -0.21855898832100065
  outer loop
   vertex 0.044487468898296356 0.029803451150655746 -0.079244457185268402
   vertex 0.048982720822095871 0.0327414870262146 -0.065862879157066345
   vertex 0.051776435226202011 0.032537404447793961 -0.066609323024749756
  endloop
 endfacet
 facet normal 0.86619037658585862 -9.4745345278749699e-05 -0.499714140817896
  outer loop
   vertex 0.051808439195156097 -0.0084999948740005493 -0.066546067595481873
   vertex 0.038085982203483582 -0.0085744904354214668 -0.090332172811031342
   vertex 0.051776435226202011 0.032537404447793961 -0.066609323024749756
  endloop
 endfacet
 facet normal 0.86607173789372349 6.3395800480246594e-05 -0.49991973436014492
  outer loop
   vertex 0.051776435226202011 0.032537404447793961 -0.066609323024749756
   vertex 0.038085982203483582 -0.0085744904354214668 -0.090332172811031342
   vertex 0.0339803546667099 0.003496240358799696 -0.097443319857120514
  endloop
 endfacet
 facet normal 0.86603259383657449 1.0132201605929735e-05 -0.49998754615493501
  outer loop
   vertex 0.038085982203483582 -0.0085744904354214668 -0.090332172811031342
   vertex 0.035120204091072083 -0.00010287338227499276 -0.095469050109386444
   vertex 0.0339803546667099 0.003496240358799696 -0.097443319857120514
  endloop
 endfacet
 facet normal 0.86602576505439866 -4.4446860366168803e-07 -0.49999937426135432
  outer loop
   vertex 0.037508729845285416 0.024748740717768669 -0.091332003474235535
   vertex 0.044487468898296356 0.029803451150655746 -0.079244457185268402
   vertex 0.0339803546667099 0.003496240358799696 -0.097443319857120514
  endloop
 endfacet
 facet normal 0.86623235836300339 -0.00033069278803385128 -0.49964126327511144
  outer loop
   vertex 0.0339803546667099 0.003496240358799696 -0.097443319857120514
   vertex 0.044487468898296356 0.029803451150655746 -0.079244457185268402
   vertex 0.051776435226202011 0.032537404447793961 -0.066609323024749756
  endloop
 endfacet
 facet normal 0.86602609168272171 -6.6137832799058531e-07 -0.49999880852289302
  outer loop
   vertex 0.037508729845285416 0.024748740717768669 -0.091332003474235535
   vertex 0.0339803546667099 0.003496240358799696 -0.097443319857120514
   vertex 0.02870975062251091 0.0071195708587765694 -0.10657230764627457
  endloop
 endfacet
 facet normal 0.86602624711374876 2.4300396176606212e-07 -0.49999853930788357
  outer loop
   vertex 0.02870975062251091 0.0071195708587765694 -0.10657230764627457
   vertex 0.0339803546667099 0.003496240358799696 -0.097443319857120514
   vertex 0.032031603157520294 8.8547574705444276e-05 -0.10081867128610611
  endloop
 endfacet
 facet normal 0.86602468535390764 -2.7084522789078405e-06 -0.5000012443487809
  outer loop
   vertex 0.02870975062251091 0.0071195708587765694 -0.10657230764627457
   vertex 0.032031603157520294 8.8547574705444276e-05 -0.10081867128610611
   vertex 0.027511533349752426 0.00031025122734718025 -0.10864763706922531
  endloop
 endfacet
 facet normal 0.86602473024908955 9.5257542016982363e-07 -0.50000116659472327
  outer loop
   vertex 0.027511533349752426 0.00031025122734718025 -0.10864763706922531
   vertex 0.032031603157520294 8.8547574705444276e-05 -0.10081867128610611
   vertex 0.029133928939700127 -0.0084938490763306618 -0.10583759099245071
  endloop
 endfacet
 facet normal 0.86602620011222697 -1.032504628750919e-06 -0.49999862071620865
  outer loop
   vertex 0.029133928939700127 -0.0084938490763306618 -0.10583759099245071
   vertex 0.032031603157520294 8.8547574705444276e-05 -0.10081867128610611
   vertex 0.03342549130320549 -0.0033348740544170141 -0.098404370248317719
  endloop
 endfacet
 facet normal 0.86602612252244127 -7.7432644127149124e-07 -0.49999875510659614
  outer loop
   vertex 0.029133928939700127 -0.0084938490763306618 -0.10583759099245071
   vertex 0.03342549130320549 -0.0033348740544170141 -0.098404370248317719
   vertex 0.033459216356277466 -0.012215935625135899 -0.098345942795276642
  endloop
 endfacet
 facet normal 0.86602492380719909 -7.9253777368530349e-07 -0.500000831343416
  outer loop
   vertex 0.033459216356277466 -0.012215935625135899 -0.098345942795276642
   vertex 0.03342549130320549 -0.0033348740544170141 -0.098404370248317719
   vertex 0.038085982203483582 -0.0085744904354214668 -0.090332172811031342
  endloop
 endfacet
 facet normal 0.86602500905899671 -4.8922283017508905e-07 -0.50000068368365802
  outer loop
   vertex 0.038085982203483582 -0.0085744904354214668 -0.090332172811031342
   vertex 0.03342549130320549 -0.0033348740544170141 -0.098404370248317719
   vertex 0.035120204091072083 -0.00010287338227499276 -0.095469050109386444
  endloop
 endfacet
 facet normal -0.43947254294806343 0.33174618497707309 -0.83475047334393282
  outer loop
   vertex 0.026190085336565971 0.0068912990391254425 -0.10533649474382401
   vertex 0.02870975062251091 0.0071195708587765694 -0.10657230764627457
   vertex 0.027511533349752426 0.00031025122734718025 -0.10864763706922531
  endloop
 endfacet
 facet normal -0.46198374916163093 0.32284375534705279 -0.82604051059495598
  outer loop
   vertex 0.026190085336565971 0.0068912990391254425 -0.10533649474382401
   vertex 0.027511533349752426 0.00031025122734718025 -0.10864763706922531
   vertex 0.025150075554847717 0.00079415686195716262 -0.10713780671358109
  endloop
 endfacet
 facet normal -0.55635771572015114 -0.19421724858075123 -0.80792682373614633
  outer loop
   vertex 0.025150075554847717 0.00079415686195716262 -0.10713780671358109
   vertex 0.027511533349752426 0.00031025122734718025 -0.10864763706922531
   vertex 0.025760622695088387 -0.005353895016014576 -0.1060803160071373
  endloop
 endfacet
 facet normal -0.24702958765353986 -0.33565696978046722 -0.90901638129437279
  outer loop
   vertex 0.025760622695088387 -0.005353895016014576 -0.1060803160071373
   vertex 0.027511533349752426 0.00031025122734718025 -0.10864763706922531
   vertex 0.029133928939700127 -0.0084938490763306618 -0.10583759099245071
  endloop
 endfacet
 facet normal -0.56016802682826761 -0.64224239740848066 -0.52319832252247556
  outer loop
   vertex 0.025760622695088387 -0.005353895016014576 -0.1060803160071373
   vertex 0.029133928939700127 -0.0084938490763306618 -0.10583759099245071
   vertex 0.027825625613331795 -0.010068728588521481 -0.10250362753868103
  endloop
 endfacet
 facet normal -0.0227098686831914 -0.90049119517593357 -0.4342808645047706
  outer loop
   vertex 0.027825625613331795 -0.010068728588521481 -0.10250362753868103
   vertex 0.029133928939700127 -0.0084938490763306618 -0.10583759099245071
   vertex 0.033459216356277466 -0.012215935625135899 -0.098345942795276642
  endloop
 endfacet
 facet normal -0.20065889944282453 -0.95440652784551061 -0.22100720730390391
  outer loop
   vertex 0.027825625613331795 -0.010068728588521481 -0.10250362753868103
   vertex 0.033459216356277466 -0.012215935625135899 -0.098345942795276642
   vertex 0.031339295208454132 -0.01221673097461462 -0.09641776978969574
  endloop
 endfacet
 facet normal 0.25159372698784488 -0.92757589620246184 0.27623097821309867
  outer loop
   vertex 0.031339295208454132 -0.01221673097461462 -0.09641776978969574
   vertex 0.033459216356277466 -0.012215935625135899 -0.098345942795276642
   vertex 0.038085982203483582 -0.0085744904354214668 -0.090332172811031342
  endloop
 endfacet
 facet normal 0.17544184715908556 -0.91823217131157675 0.35506314626251395
  outer loop
   vertex 0.031339295208454132 -0.01221673097461462 -0.09641776978969574
   vertex 0.038085982203483582 -0.0085744904354214668 -0.090332172811031342
   vertex 0.035629674792289734 -0.0085234986618161201 -0.088986605405807495
  endloop
 endfacet
 facet normal -0.36229211166405045 0.70627685953860131 -0.60820837178247888
  outer loop
   vertex 0.026190085336565971 0.0068912990391254425 -0.10533649474382401
   vertex 0.035339336842298508 0.025231108069419861 -0.089489489793777466
   vertex 0.02870975062251091 0.0071195708587765694 -0.10657230764627457
  endloop
 endfacet
 facet normal -0.36030353534930293 0.70646086159600741 -0.60917519109679819
  outer loop
   vertex 0.02870975062251091 0.0071195708587765694 -0.10657230764627457
   vertex 0.035339336842298508 0.025231108069419861 -0.089489489793777466
   vertex 0.037508729845285416 0.024748740717768669 -0.091332003474235535
  endloop
 endfacet
 facet normal -0.86601969256559153 6.0661516994533915e-05 0.50000988831100013
  outer loop
   vertex 0.049013484269380569 -0.008500000461935997 -0.06580459326505661
   vertex 0.048982720822095871 0.0327414870262146 -0.065862879157066345
   vertex 0.032083846628665924 0.0026984703727066517 -0.095128171145915985
  endloop
 endfacet
 facet normal -0.8660300831726746 -2.1629857629115117e-06 0.49999189496956042
  outer loop
   vertex 0.032083846628665924 0.0026984703727066517 -0.095128171145915985
   vertex 0.03269481286406517 1.069423888111487e-06 -0.094069935381412506
   vertex 0.049013484269380569 -0.008500000461935997 -0.06580459326505661
  endloop
 endfacet
 facet normal -0.86603076251922906 -7.3796216722886276e-06 0.49999071822975283
  outer loop
   vertex 0.049013484269380569 -0.008500000461935997 -0.06580459326505661
   vertex 0.03269481286406517 1.069423888111487e-06 -0.094069935381412506
   vertex 0.035629674792289734 -0.0085234986618161201 -0.088986605405807495
  endloop
 endfacet
 facet normal -0.86602582281293083 -5.7689821200567015e-07 0.49999927422032653
  outer loop
   vertex 0.035629674792289734 -0.0085234986618161201 -0.088986605405807495
   vertex 0.03269481286406517 1.069423888111487e-06 -0.094069935381412506
   vertex 0.032158557325601578 -0.0025938395410776138 -0.094998762011528015
  endloop
 endfacet
 facet normal -0.86602538751294711 3.0897429405321266e-06 0.50000002817350242
  outer loop
   vertex 0.030140077695250511 0.0023760830517858267 -0.098494879901409149
   vertex 0.026190085336565971 0.0068912990391254425 -0.10533649474382401
   vertex 0.025150075554847717 0.00079415686195716262 -0.10713780671358109
  endloop
 endfacet
 facet normal -0.86602517977180982 4.6851443970978954e-07 0.50000038800083435
  outer loop
   vertex 0.030140077695250511 0.0023760830517858267 -0.098494879901409149
   vertex 0.025150075554847717 0.00079415686195716262 -0.10713780671358109
   vertex 0.029847798869013786 -0.0020037081558257341 -0.099001117050647736
  endloop
 endfacet
 facet normal -0.86602534229329464 -6.2300430262009879e-07 0.50000010650538207
  outer loop
   vertex 0.029847798869013786 -0.0020037081558257341 -0.099001117050647736
   vertex 0.025150075554847717 0.00079415686195716262 -0.10713780671358109
   vertex 0.025760622695088387 -0.005353895016014576 -0.1060803160071373
  endloop
 endfacet
 facet normal -0.86602542843290253 -2.0264900821367063e-07 0.49999995730756497
  outer loop
   vertex 0.029847798869013786 -0.0020037081558257341 -0.099001117050647736
   vertex 0.025760622695088387 -0.005353895016014576 -0.1060803160071373
   vertex 0.027825625613331795 -0.010068728588521481 -0.10250362753868103
  endloop
 endfacet
 facet normal -0.86602554154759759 -8.9202190118124258e-08 0.49999976138712532
  outer loop
   vertex 0.029847798869013786 -0.0020037081558257341 -0.099001117050647736
   vertex 0.027825625613331795 -0.010068728588521481 -0.10250362753868103
   vertex 0.031339295208454132 -0.01221673097461462 -0.09641776978969574
  endloop
 endfacet
 facet normal -0.86602562846685882 -1.3997651789179441e-07 0.49999961083841121
  outer loop
   vertex 0.029847798869013786 -0.0020037081558257341 -0.099001117050647736
   vertex 0.031339295208454132 -0.01221673097461462 -0.09641776978969574
   vertex 0.032158557325601578 -0.0025938395410776138 -0.094998762011528015
  endloop
 endfacet
 facet normal -0.86602563523265197 -1.3767243936125989e-07 0.49999959911970204
  outer loop
   vertex 0.032158557325601578 -0.0025938395410776138 -0.094998762011528015
   vertex 0.031339295208454132 -0.01221673097461462 -0.09641776978969574
   vertex 0.035629674792289734 -0.0085234986618161201 -0.088986605405807495
  endloop
 endfacet
 facet normal -0.86602613678317952 4.6784551063533074e-07 0.499998730406571
  outer loop
   vertex 0.026190085336565971 0.0068912990391254425 -0.10533649474382401
   vertex 0.030140077695250511 0.0023760830517858267 -0.098494879901409149
   vertex 0.035339336842298508 0.025231108069419861 -0.089489489793777466
  endloop
 endfacet
 facet normal -0.86602554253828723 -7.2891710601804967e-08 0.49999975967120214
  outer loop
   vertex 0.035339336842298508 0.025231108069419861 -0.089489489793777466
   vertex 0.030140077695250511 0.0023760830517858267 -0.098494879901409149
   vertex 0.032083846628665924 0.0026984703727066517 -0.095128171145915985
  endloop
 endfacet
 facet normal -0.86598133982647418 -2.5616240584209096e-05 0.50007631259254126
  outer loop
   vertex 0.035339336842298508 0.025231108069419861 -0.089489489793777466
   vertex 0.032083846628665924 0.0026984703727066517 -0.095128171145915985
   vertex 0.048982720822095871 0.0327414870262146 -0.065862879157066345
  endloop
 endfacet
 facet normal 0.70390842952481802 -0.1277346044120643 0.69871080833174304
  outer loop
   vertex 0.029847798869013786 -0.0020037081558257341 -0.099001117050647736
   vertex 0.032031603157520294 8.8547574705444276e-05 -0.10081867128610611
   vertex 0.030140077695250511 0.0023760830517858267 -0.098494879901409149
  endloop
 endfacet
 facet normal 0.012803447216970772 -0.70735596515250221 0.70674154420306612
  outer loop
   vertex 0.030140077695250511 0.0023760830517858267 -0.098494879901409149
   vertex 0.032031603157520294 8.8547574705444276e-05 -0.10081867128610611
   vertex 0.0339803546667099 0.003496240358799696 -0.097443319857120514
  endloop
 endfacet
 facet normal 0.2997064583678638 -0.95049937675731877 -0.082018129682042903
  outer loop
   vertex 0.030140077695250511 0.0023760830517858267 -0.098494879901409149
   vertex 0.0339803546667099 0.003496240358799696 -0.097443319857120514
   vertex 0.032083846628665924 0.0026984703727066517 -0.095128171145915985
  endloop
 endfacet
 facet normal -0.63529444257082113 -0.40247255760992162 -0.65910303565494066
  outer loop
   vertex 0.032083846628665924 0.0026984703727066517 -0.095128171145915985
   vertex 0.0339803546667099 0.003496240358799696 -0.097443319857120514
   vertex 0.03269481286406517 1.069423888111487e-06 -0.094069935381412506
  endloop
 endfacet
 facet normal -0.43924652394093444 -0.5349923352559921 -0.72169639906483274
  outer loop
   vertex 0.03269481286406517 1.069423888111487e-06 -0.094069935381412506
   vertex 0.0339803546667099 0.003496240358799696 -0.097443319857120514
   vertex 0.035120204091072083 -0.00010287338227499276 -0.095469050109386444
  endloop
 endfacet
 facet normal -0.44946549760388832 0.38193439538461671 -0.80753135176652835
  outer loop
   vertex 0.03269481286406517 1.069423888111487e-06 -0.094069935381412506
   vertex 0.035120204091072083 -0.00010287338227499276 -0.095469050109386444
   vertex 0.032158557325601578 -0.0025938395410776138 -0.094998762011528015
  endloop
 endfacet
 facet normal -0.62972266593916126 0.67668437428931294 -0.38150704003354469
  outer loop
   vertex 0.032158557325601578 -0.0025938395410776138 -0.094998762011528015
   vertex 0.035120204091072083 -0.00010287338227499276 -0.095469050109386444
   vertex 0.03342549130320549 -0.0033348740544170141 -0.098404370248317719
  endloop
 endfacet
 facet normal 0.35802649480274334 0.93112755759694144 -0.069415419776988771
  outer loop
   vertex 0.032158557325601578 -0.0025938395410776138 -0.094998762011528015
   vertex 0.03342549130320549 -0.0033348740544170141 -0.098404370248317719
   vertex 0.029847798869013786 -0.0020037081558257341 -0.099001117050647736
  endloop
 endfacet
 facet normal 0.089724933972775797 0.59814320710522917 0.79635051329012896
  outer loop
   vertex 0.029847798869013786 -0.0020037081558257341 -0.099001117050647736
   vertex 0.03342549130320549 -0.0033348740544170141 -0.098404370248317719
   vertex 0.032031603157520294 8.8547574705444276e-05 -0.10081867128610611
  endloop
 endfacet
 facet normal -0.99999999515393578 -2.6334823476228706e-05 -9.4860978602983882e-05
  outer loop
   vertex 0.049013521522283554 -0.008500000461935997 -0.037528738379478455
   vertex 0.049012441188097 0.032531104981899261 -0.037530981004238129
   vertex 0.049013771116733551 0.033671457320451736 -0.051867324858903885
  endloop
 endfacet
 facet normal -0.99999999997886591 6.3665161244199229e-06 1.3174810499834735e-06
  outer loop
   vertex 0.049013521522283554 -0.008500000461935997 -0.037528738379478455
   vertex 0.049013771116733551 0.033671457320451736 -0.051867324858903885
   vertex 0.049013484269380569 -0.008500000461935997 -0.06580459326505661
  endloop
 endfacet
 facet normal -0.99999715242367948 -0.00074272712496822825 0.0022679287798346302
  outer loop
   vertex 0.049013484269380569 -0.008500000461935997 -0.06580459326505661
   vertex 0.049013771116733551 0.033671457320451736 -0.051867324858903885
   vertex 0.048982720822095871 0.0327414870262146 -0.065862879157066345
  endloop
 endfacet
 facet normal -0.8660208017722989 -6.2331712139473283e-05 -0.50000796694895
  outer loop
   vertex 0.037125200033187866 -0.008500000461935997 -0.016937999054789543
   vertex 0.03711913526058197 0.026365362107753754 -0.016931841149926186
   vertex 0.049013521522283554 -0.008500000461935997 -0.037528738379478455
  endloop
 endfacet
 facet normal -0.86592746284060884 6.4994327983735584e-05 -0.50016959611132239
  outer loop
   vertex 0.049013521522283554 -0.008500000461935997 -0.037528738379478455
   vertex 0.03711913526058197 0.026365362107753754 -0.016931841149926186
   vertex 0.043235596269369125 0.030354375019669533 -0.027520554140210152
  endloop
 endfacet
 facet normal -0.86612098854694231 -5.012395108220104e-05 -0.4998344032637777
  outer loop
   vertex 0.049013521522283554 -0.008500000461935997 -0.037528738379478455
   vertex 0.043235596269369125 0.030354375019669533 -0.027520554140210152
   vertex 0.049012441188097 0.032531104981899261 -0.037530981004238129
  endloop
 endfacet
 facet normal -0.49952285246228917 -0.00012971143669449225 -0.86630070012835692
  outer loop
   vertex 0.012632153928279877 0.014499999582767487 -0.0028004662599414587
   vertex 0.017920630052685738 0.014748549088835716 -0.0058499234728515148
   vertex 0.012638809159398079 -0.008500000461935997 -0.0028008599765598774
  endloop
 endfacet
 facet normal -0.49999773771968636 1.4111419649240343e-05 -0.86602670979367802
  outer loop
   vertex 0.012638809159398079 -0.008500000461935997 -0.0028008599765598774
   vertex 0.017920630052685738 0.014748549088835716 -0.0058499234728515148
   vertex 0.037125200033187866 -0.008500000461935997 -0.016937999054789543
  endloop
 endfacet
 facet normal -0.49995062819329161 6.5996464828259037e-05 -0.86605390421936201
  outer loop
   vertex 0.017920630052685738 0.014748549088835716 -0.0058499234728515148
   vertex 0.03711913526058197 0.026365362107753754 -0.016931841149926186
   vertex 0.037125200033187866 -0.008500000461935997 -0.016937999054789543
  endloop
 endfacet
 facet normal -0.33860240722413282 0.88874279905768028 0.30900590114938331
  outer loop
   vertex 0.039175879210233688 0.026444016024470329 -0.014904322102665901
   vertex 0.03711913526058197 0.026365362107753754 -0.016931841149926186
   vertex 0.019036483019590378 0.014722847379744053 -0.0032609968911856413
  endloop
 endfacet
 facet normal -0.42466061337839867 0.88479922692083901 0.19181681752486623
  outer loop
   vertex 0.019036483019590378 0.014722847379744053 -0.0032609968911856413
   vertex 0.03711913526058197 0.026365362107753754 -0.016931841149926186
   vertex 0.017920630052685738 0.014748549088835716 -0.0058499234728515148
  endloop
 endfacet
 facet normal -0.99996392505298826 -0.0084868695564904676 0.00034876604293968905
  outer loop
   vertex 0.0029161116108298302 0.0013841374311596155 -0.00279999990016222
   vertex 0.0030000000260770321 -0.008500000461935997 -0.00279999990016222
   vertex 0.0029225163161754608 0.00074456952279433608 -2.6040935567937011e-19
  endloop
 endfacet
 facet normal -0.99996487676520485 -0.0083812431028175878 0
  outer loop
   vertex 0.0029225163161754608 0.00074456952279433608 -2.6040935567937011e-19
   vertex 0.0030000000260770321 -0.008500000461935997 -0.00279999990016222
   vertex 0.0030000000260770321 -0.008500000461935997 5.4595859133060498e-19
  endloop
 endfacet
 facet normal -0.6894055183036879 -0.70652814258788321 -0.15980617967944491
  outer loop
   vertex 0.0029161116108298302 0.0013841374311596155 -0.00279999990016222
   vertex 0.0029225163161754608 0.00074456952279433608 -2.6040935567937011e-19
   vertex 0.00046431421651504934 0.0031431973911821842 -5.2289896720173452e-19
  endloop
 endfacet
 facet normal -0.47230976181238649 -0.87122428688191489 0.13375997474515966
  outer loop
   vertex 0.0029161116108298302 0.0013841374311596155 -0.00279999990016222
   vertex 0.00046431421651504934 0.0031431973911821842 -5.2289896720173452e-19
   vertex -6.6785440139938146e-05 0.0030012312345206738 -0.00279999990016222
  endloop
 endfacet
 facet normal 0.57098393059096231 -0.81823765056446485 -0.066816900598873311
  outer loop
   vertex -6.6785440139938146e-05 0.0030012312345206738 -0.00279999990016222
   vertex 0.00046431421651504934 0.0031431973911821842 -5.2289896720173452e-19
   vertex -0.0029132948257029057 0.0007862287457101047 -9.2932400883011528e-21
  endloop
 endfacet
 facet normal 0.57212402034719989 -0.81757662806257081 -0.065134956725197868
  outer loop
   vertex -6.6785440139938146e-05 0.0030012312345206738 -0.00279999990016222
   vertex -0.0029132948257029057 0.0007862287457101047 -9.2932400883011528e-21
   vertex -0.0029801232740283012 0.00096253480296581984 -0.00279999990016222
  endloop
 endfacet
 facet normal 0.99999779380251375 -0.0021005689955435731 0
  outer loop
   vertex -0.0030000000260770321 -0.008500000461935997 -0.00279999990016222
   vertex -0.0029801232740283012 0.00096253480296581984 -0.00279999990016222
   vertex -0.0030000000260770321 -0.008500000461935997 8.7902550161328408e-19
  endloop
 endfacet
 facet normal 0.99965755764158959 -0.0093337679808136714 -0.024446844895249193
  outer loop
   vertex -0.0030000000260770321 -0.008500000461935997 8.7902550161328408e-19
   vertex -0.0029801232740283012 0.00096253480296581984 -0.00279999990016222
   vertex -0.0029132948257029057 0.0007862287457101047 -9.2932400883011528e-21
  endloop
 endfacet
 facet normal -0.026109092326251263 -0.99958004211111773 -0.012571981189745616
  outer loop
   vertex -0.0122935576364398 -0.0082572521641850471 -0.00279999990016222
   vertex -0.0030000000260770321 -0.008500000461935997 -0.00279999990016222
   vertex -0.010993604548275471 -0.008326423354446888 1.3869575145102724e-18
  endloop
 endfacet
 facet normal -0.021709380165782319 -0.99976432363473422 0
  outer loop
   vertex -0.010993604548275471 -0.008326423354446888 1.3869575145102724e-18
   vertex -0.0030000000260770321 -0.008500000461935997 -0.00279999990016222
   vertex -0.0030000000260770321 -0.008500000461935997 8.7902550161328408e-19
  endloop
 endfacet
 facet normal -0.41717653264693039 -0.89247147628464329 0.17163450884654338
  outer loop
   vertex -0.0122935576364398 -0.0082572521641850471 -0.00279999990016222
   vertex -0.010993604548275471 -0.008326423354446888 1.3869575145102724e-18
   vertex -0.01707170158624649 -0.0054852799512445927 1.7518363952844573e-18
  endloop
 endfacet
 facet normal -0.56244131807962472 -0.81200289561137606 -0.155920047574374
  outer loop
   vertex -0.0122935576364398 -0.0082572521641850471 -0.00279999990016222
   vertex -0.01707170158624649 -0.0054852799512445927 1.7518363952844573e-18
   vertex -0.018056714907288551 -0.0042653479613363743 -0.00279999990016222
  endloop
 endfacet
 facet normal -0.8998390065623445 -0.4144916115746935 0.13596494475822202
  outer loop
   vertex -0.018056714907288551 -0.0042653479613363743 -0.00279999990016222
   vertex -0.01707170158624649 -0.0054852799512445927 1.7518363952844573e-18
   vertex -0.020835880190134048 0.0026865494437515736 1.1023892892161313e-18
  endloop
 endfacet
 facet normal -0.93608850686486167 -0.34326610689154929 -0.076854974953045871
  outer loop
   vertex -0.018056714907288551 -0.0042653479613363743 -0.00279999990016222
   vertex -0.020835880190134048 0.0026865494437515736 1.1023892892161313e-18
   vertex -0.020835880190134048 0.0033134506084024906 -0.00279999990016222
  endloop
 endfacet
 facet normal -0.92542016107311331 0.36978757720342964 0.082792953960048404
  outer loop
   vertex -0.020835880190134048 0.0033134506084024906 -0.00279999990016222
   vertex -0.020835880190134048 0.0026865494437515736 1.1023892892161313e-18
   vertex -0.017485259100794792 0.011071721091866493 2.4751787507970189e-19
  endloop
 endfacet
 facet normal -0.90590550037355122 0.41728546297750357 -0.072166936893539757
  outer loop
   vertex -0.020835880190134048 0.0033134506084024906 -0.00279999990016222
   vertex -0.017485259100794792 0.011071721091866493 2.4751787507970189e-19
   vertex -0.017071712762117386 0.011485266499221325 -0.00279999990016222
  endloop
 endfacet
 facet normal -0.44665551762497568 0.89228192301327691 0.065816551405352183
  outer loop
   vertex -0.017071712762117386 0.011485266499221325 -0.00279999990016222
   vertex -0.017485259100794792 0.011071721091866493 2.4751787507970189e-19
   vertex -0.010975239798426628 0.01433048490434885 -5.2242101190404372e-19
  endloop
 endfacet
 facet normal -0.4338071427688911 0.90052377980533516 0.029466674189722188
  outer loop
   vertex -0.017071712762117386 0.011485266499221325 -0.00279999990016222
   vertex -0.010975239798426628 0.01433048490434885 -5.2242101190404372e-19
   vertex -0.010897382162511349 0.014459611847996712 -0.00279999990016222
  endloop
 endfacet
 facet normal -8.923056596897302e-05 -7.5731549394680667e-07 -0.99999999601866629
  outer loop
   vertex 0.012638809159398079 -0.008500000461935997 -0.0028008599765598774
   vertex 0.0030000000260770321 -0.008500000461935997 -0.00279999990016222
   vertex 0.0029161116108298302 0.0013841374311596155 -0.00279999990016222
  endloop
 endfacet
 facet normal -7.1079233449888315e-05 1.7097546429388448e-05 -0.99999999732770817
  outer loop
   vertex 0.012638809159398079 -0.008500000461935997 -0.0028008599765598774
   vertex 0.0029161116108298302 0.0013841374311596155 -0.00279999990016222
   vertex 0.012632153928279877 0.014499999582767487 -0.0028004662599414587
  endloop
 endfacet
 facet normal 0 0 -1
  outer loop
   vertex -0.0029801232740283012 0.00096253480296581984 -0.00279999990016222
   vertex -0.0030000000260770321 -0.008500000461935997 -0.00279999990016222
   vertex -0.0122935576364398 -0.0082572521641850471 -0.00279999990016222
  endloop
 endfacet
 facet normal 0 0 -1
  outer loop
   vertex -0.0029801232740283012 0.00096253480296581984 -0.00279999990016222
   vertex -0.020835880190134048 0.0033134506084024906 -0.00279999990016222
   vertex -0.017071712762117386 0.011485266499221325 -0.00279999990016222
  endloop
 endfacet
 facet normal -1.3753027379516599e-05 -2.536888381304798e-05 -0.99999999958363706
  outer loop
   vertex 0.0029161116108298302 0.0013841374311596155 -0.00279999990016222
   vertex -6.6785440139938146e-05 0.0030012312345206738 -0.00279999990016222
   vertex 0.012632153928279877 0.014499999582767487 -0.0028004662599414587
  endloop
 endfacet
 facet normal -1.9788081158195244e-05 -1.8703928082290618e-05 -0.99999999962929742
  outer loop
   vertex 0.012632153928279877 0.014499999582767487 -0.0028004662599414587
   vertex -6.6785440139938146e-05 0.0030012312345206738 -0.00279999990016222
   vertex -0.010897382162511349 0.014459611847996712 -0.00279999990016222
  endloop
 endfacet
 facet normal 0 0 -1
  outer loop
   vertex -0.018056714907288551 -0.0042653479613363743 -0.00279999990016222
   vertex -0.020835880190134048 0.0033134506084024906 -0.00279999990016222
   vertex -0.0029801232740283012 0.00096253480296581984 -0.00279999990016222
  endloop
 endfacet
 facet normal -0 0 -1
  outer loop
   vertex -0.010897382162511349 0.014459611847996712 -0.00279999990016222
   vertex -6.6785440139938146e-05 0.0030012312345206738 -0.00279999990016222
   vertex -0.0029801232740283012 0.00096253480296581984 -0.00279999990016222
  endloop
 endfacet
 facet normal 0 0 -1
  outer loop
   vertex -0.0029801232740283012 0.00096253480296581984 -0.00279999990016222
   vertex -0.017071712762117386 0.011485266499221325 -0.00279999990016222
   vertex -0.010897382162511349 0.014459611847996712 -0.00279999990016222
  endloop
 endfacet
 facet normal 0 0 -1
  outer loop
   vertex -0.0122935576364398 -0.0082572521641850471 -0.00279999990016222
   vertex -0.018056714907288551 -0.0042653479613363743 -0.00279999990016222
   vertex -0.0029801232740283012 0.00096253480296581984 -0.00279999990016222
  endloop
 endfacet
 facet normal -0.0017137364237926676 0.99893903995209421 0.046020186516984932
  outer loop
   vertex -0.010897382162511349 0.014459611847996712 -0.00279999990016222
   vertex -0.010975239798426628 0.01433048490434885 -5.2242101190404372e-19
   vertex 0.012632153928279877 0.014499999582767487 -0.0028004662599414587
  endloop
 endfacet
 facet normal -0.0069825787289262906 0.99997423115875106 0.0016675169442704246
  outer loop
   vertex 0.012632153928279877 0.014499999582767487 -0.0028004662599414587
   vertex -0.010975239798426628 0.01433048490434885 -5.2242101190404372e-19
   vertex 0.013298884034156799 0.014499999582767487 -8.5933070295141079e-06
  endloop
 endfacet
 facet normal 0.00051281376568517519 0.00023788143581064041 0.99999984021721933
  outer loop
   vertex 0.0024666979443281889 0.0017272016266360879 -2.8170773133835618e-19
   vertex 0.0029225163161754608 0.00074456952279433608 -2.6040935567937011e-19
   vertex 0.013298884034156799 0.014499999582767487 -8.5933070295141079e-06
  endloop
 endfacet
 facet normal 0.0013149701092275362 -0.00036722329646726086 0.99999906799989691
  outer loop
   vertex 0.013298884034156799 0.014499999582767487 -8.5933070295141079e-06
   vertex 0.0029225163161754608 0.00074456952279433608 -2.6040935567937011e-19
   vertex 0.013404252007603645 -0.008500000461935997 -1.7178006601170637e-05
  endloop
 endfacet
 facet normal 0.001651054128308508 1.3838372073742937e-05 0.99999863691345348
  outer loop
   vertex 0.013404252007603645 -0.008500000461935997 -1.7178006601170637e-05
   vertex 0.0029225163161754608 0.00074456952279433608 -2.6040935567937011e-19
   vertex 0.0030000000260770321 -0.008500000461935997 5.4595859133060498e-19
  endloop
 endfacet
 facet normal 6.5606202347733786e-17 9.5047227786979332e-17 1
  outer loop
   vertex -0.010993604548275471 -0.008326423354446888 1.3869575145102724e-18
   vertex -0.0030000000260770321 -0.008500000461935997 8.7902550161328408e-19
   vertex -0.0029132948257029057 0.0007862287457101047 -9.2932400883011528e-21
  endloop
 endfacet
 facet normal 0.0002175062584945461 0.00050496468619095735 0.99999984885083515
  outer loop
   vertex 0.00052616448374465108 0.0029840273782610893 -2.7933692830520263e-19
   vertex 0.0017272016266360879 0.0024666979443281889 -3.026440345335913e-19
   vertex 0.013298884034156799 0.014499999582767487 -8.5933070295141079e-06
  endloop
 endfacet
 facet normal 5.5511146223697305e-17 8.3822566629806949e-17 1
  outer loop
   vertex -0.017809510231018066 0.010392059572041035 1.1753719516495678e-19
   vertex -0.018959289416670799 0.008750000037252903 3.1900440042957722e-19
   vertex -0.0024666979443281889 0.0017272016266360879 -7.8492686977062655e-21
  endloop
 endfacet
 facet normal 1.5942786654975182e-17 -9.1011870423956229e-18 1
  outer loop
   vertex -0.0024666979443281889 0.0017272016266360879 -7.8492686977062655e-21
   vertex -0.018959289416670799 0.008750000037252903 3.1900440042957722e-19
   vertex -0.0029132948257029057 0.0007862287457101047 -9.2932400883011528e-21
  endloop
 endfacet
 facet normal 5.5511260222203094e-17 8.3822768486281266e-17 1
  outer loop
   vertex -0.017809510231018066 0.010392059572041035 1.1753719516495678e-19
   vertex -0.0024666979443281889 0.0017272016266360879 -7.8492686977062655e-21
   vertex -0.016392059624195099 0.011809510178864002 -7.996190837897315e-20
  endloop
 endfacet
 facet normal 5.5511147099991997e-17 8.3822612245506111e-17 1
  outer loop
   vertex -0.016392059624195099 0.011809510178864002 -7.996190837897315e-20
   vertex -0.0024666979443281889 0.0017272016266360879 -7.8492686977062655e-21
   vertex -0.014750000089406967 0.01295929029583931 -2.6749208967435541e-19
  endloop
 endfacet
 facet normal 5.5510910463880002e-17 8.3822353462571979e-17 1
  outer loop
   vertex -0.014750000089406967 0.01295929029583931 -2.6749208967435541e-19
   vertex -0.0024666979443281889 0.0017272016266360879 -7.8492686977062655e-21
   vertex -0.012933230027556419 0.013806469738483429 -4.3935522459873897e-19
  endloop
 endfacet
 facet normal 5.5511221147350365e-17 8.3822622665844923e-17 1
  outer loop
   vertex -0.012933230027556419 0.013806469738483429 -4.3935522459873897e-19
   vertex -0.0024666979443281889 0.0017272016266360879 -7.8492686977062655e-21
   vertex -0.0017272016266360879 0.0024666979443281889 -1.1088613312745052e-19
  endloop
 endfacet
 facet normal 2.7419992935482779e-17 5.6062707662866409e-17 1
  outer loop
   vertex -0.012933230027556419 0.013806469738483429 -4.3935522459873897e-19
   vertex -0.0017272016266360879 0.0024666979443281889 -1.1088613312745052e-19
   vertex -0.010975239798426628 0.01433048490434885 -5.2242101190404372e-19
  endloop
 endfacet
 facet normal 0.000364046248619091 0.00036404624861911935 0.99999986747032021
  outer loop
   vertex 0.013298884034156799 0.014499999582767487 -8.5933070295141079e-06
   vertex 0.0017272016266360879 0.0024666979443281889 -3.026440345335913e-19
   vertex 0.0024666979443281889 0.0017272016266360879 -2.8170773133835618e-19
  endloop
 endfacet
 facet normal 6.0830493014508325e-17 8.1341879072639514e-17 1
  outer loop
   vertex -0.018959289416670799 0.008750000037252903 3.1900440042957722e-19
   vertex -0.019806470721960068 0.0069332318380475044 5.183181960657807e-19
   vertex -0.0029132948257029057 0.0007862287457101047 -9.2932400883011528e-21
  endloop
 endfacet
 facet normal 6.118045316406541e-17 8.2303638530759493e-17 1
  outer loop
   vertex -0.0029132948257029057 0.0007862287457101047 -9.2932400883011528e-21
   vertex -0.019806470721960068 0.0069332318380475044 5.183181960657807e-19
   vertex -0.020325290039181709 0.0049969539977610111 7.0942250846573096e-19
  endloop
 endfacet
 facet normal 6.1422709411730289e-17 8.3305405298306635e-17 1
  outer loop
   vertex -0.0029132948257029057 0.0007862287457101047 -9.2932400883011528e-21
   vertex -0.020325290039181709 0.0049969539977610111 7.0942250846573096e-19
   vertex -0.020500000566244125 0.0030000000260770321 8.86510762373853e-19
  endloop
 endfacet
 facet normal 5.7515824000651218e-17 7.9522956522725614e-17 1
  outer loop
   vertex -0.010975239798426628 0.01433048490434885 -5.2242101190404372e-19
   vertex -0.0017272016266360879 0.0024666979443281889 -1.1088613312745052e-19
   vertex -0.0007793799159117043 0.0029086752329021692 -2.005482205287711e-19
  endloop
 endfacet
 facet normal 6.155434891339728e-17 8.435117962927779e-17 1
  outer loop
   vertex -0.020500000566244125 0.0030000000260770321 8.86510762373853e-19
   vertex -0.020325290039181709 0.0010030460543930531 1.0442019928091245e-18
   vertex -0.0029132948257029057 0.0007862287457101047 -9.2932400883011528e-21
  endloop
 endfacet
 facet normal 6.1567978734274639e-17 8.5445752647081576e-17 1
  outer loop
   vertex -0.0029132948257029057 0.0007862287457101047 -9.2932400883011528e-21
   vertex -0.020325290039181709 0.0010030460543930531 1.0442019928091245e-18
   vertex -0.019806470721960068 -0.00093323172768577933 1.1777060485430393e-18
  endloop
 endfacet
 facet normal 6.1451270814586188e-17 8.6592372442237075e-17 1
  outer loop
   vertex -0.0029132948257029057 0.0007862287457101047 -9.2932400883011528e-21
   vertex -0.019806470721960068 -0.00093323172768577933 1.1777060485430393e-18
   vertex -0.018959289416670799 -0.0027499999850988388 1.2829639543097995e-18
  endloop
 endfacet
 facet normal 5.5845540634804025e-17 7.8031951537338186e-17 1
  outer loop
   vertex -0.010975239798426628 0.01433048490434885 -5.2242101190404372e-19
   vertex -0.0007793799159117043 0.0029086752329021692 -2.005482205287711e-19
   vertex 0.00052616448374465108 0.0029840273782610893 -2.7933692830520263e-19
  endloop
 endfacet
 facet normal 0.00035152263500178819 0.00035632301360969028 0.99999987473286567
  outer loop
   vertex -0.010975239798426628 0.01433048490434885 -5.2242101190404372e-19
   vertex 0.00052616448374465108 0.0029840273782610893 -2.7933692830520263e-19
   vertex 0.013298884034156799 0.014499999582767487 -8.5933070295141079e-06
  endloop
 endfacet
 facet normal 6.118597764222823e-17 8.7796166973848959e-17 1
  outer loop
   vertex -0.018959289416670799 -0.0027499999850988388 1.2829639543097995e-18
   vertex -0.017809510231018066 -0.0043920581229031086 1.3567800012103831e-18
   vertex -0.0029132948257029057 0.0007862287457101047 -9.2932400883011528e-21
  endloop
 endfacet
 facet normal 6.0747175700372545e-17 8.9058454755889785e-17 1
  outer loop
   vertex -0.0029132948257029057 0.0007862287457101047 -9.2932400883011528e-21
   vertex -0.017809510231018066 -0.0043920581229031086 1.3567800012103831e-18
   vertex -0.016392059624195099 -0.0058095110580325127 1.3969100482429339e-18
  endloop
 endfacet
 facet normal 6.0101399654203068e-17 9.0378134382105423e-17 1
  outer loop
   vertex -0.0029132948257029057 0.0007862287457101047 -9.2932400883011528e-21
   vertex -0.016392059624195099 -0.0058095110580325127 1.3969100482429339e-18
   vertex -0.014750000089406967 -0.0069592921063303947 1.4021350379797016e-18
  endloop
 endfacet
 facet normal 5.9205841865484367e-17 9.1746725829236455e-17 1
  outer loop
   vertex -0.014750000089406967 -0.0069592921063303947 1.4021350379797016e-18
   vertex -0.012933230027556419 -0.0078064650297164917 1.3722969789236888e-18
   vertex -0.0029132948257029057 0.0007862287457101047 -9.2932400883011528e-21
  endloop
 endfacet
 facet normal 2.7079026022923277e-17 1.2920978705282364e-16 1
  outer loop
   vertex -0.0029132948257029057 0.0007862287457101047 -9.2932400883011528e-21
   vertex -0.012933230027556419 -0.0078064650297164917 1.3722969789236888e-18
   vertex -0.010993604548275471 -0.008326423354446888 1.3869575145102724e-18
  endloop
 endfacet
 facet normal 0 -1 0
  outer loop
   vertex 0.0030000000260770321 -0.008500000461935997 5.4595859133060498e-19
   vertex 0.0030000000260770321 -0.008500000461935997 -0.00279999990016222
   vertex 0.013404252007603645 -0.008500000461935997 -1.7178006601170637e-05
  endloop
 endfacet
 facet normal 0 -1 0
  outer loop
   vertex 0.013404252007603645 -0.008500000461935997 -1.7178006601170637e-05
   vertex 0.0030000000260770321 -0.008500000461935997 -0.00279999990016222
   vertex 0.012638809159398079 -0.008500000461935997 -0.0028008599765598774
  endloop
 endfacet
endsolid
